<?xml version="1.0" standalone="no"?>
<!DOCTYPE svg PUBLIC "-//W3C//DTD SVG 20010904//EN"
 "http://www.w3.org/TR/2001/REC-SVG-20010904/DTD/svg10.dtd">
<svg version="1.0" xmlns="http://www.w3.org/2000/svg"
 width="700.000000pt" height="700.000000pt" viewBox="0 0 700.000000 700.000000"
 preserveAspectRatio="xMidYMid meet">
<metadata>
Created by potrace 1.14, written by Peter Selinger 2001-2017
</metadata>
<g transform="translate(0.000000,700.000000) scale(0.100000,-0.100000)"
fill="#000000" stroke="none">
<path d="M3820 5303 c0 -2 -175 -596 -352 -1193 -49 -168 -95 -321 -100 -340
-6 -19 -59 -201 -120 -405 -60 -203 -121 -408 -134 -455 -30 -102 -134 -455
-165 -560 -12 -41 -24 -79 -25 -85 -2 -10 -70 -237 -130 -438 -20 -65 -33
-121 -30 -125 4 -3 116 -6 250 -6 l244 -1 47 160 c46 153 56 188 111 370 21
69 70 237 120 410 8 28 22 73 30 100 8 28 23 79 33 115 11 36 49 166 86 290
102 343 176 593 180 610 5 19 168 573 195 660 11 36 26 88 34 115 22 76 74
252 96 325 63 205 129 444 125 449 -5 4 -495 9 -495 4z"/>
<path d="M2309 4507 c-36 -18 -128 -61 -205 -96 -76 -36 -199 -93 -273 -128
-73 -35 -135 -63 -136 -63 -2 0 -56 -25 -121 -56 -66 -31 -162 -75 -214 -99
-52 -24 -142 -65 -200 -93 -58 -27 -130 -61 -160 -75 -52 -24 -95 -43 -290
-134 -47 -22 -107 -50 -135 -63 -27 -13 -87 -40 -132 -62 -303 -140 -364 -169
-410 -189 l-33 -14 0 -215 0 -215 58 -27 c31 -15 125 -58 207 -96 148 -68 175
-81 388 -181 60 -28 110 -51 112 -51 2 0 70 -31 151 -70 80 -38 148 -70 150
-70 1 0 49 -22 106 -49 115 -54 177 -83 288 -134 41 -19 113 -52 160 -75 47
-22 173 -80 280 -130 107 -49 236 -109 285 -132 105 -49 196 -90 201 -90 1 0
3 117 3 261 l1 260 -68 31 c-109 49 -141 63 -257 113 -60 26 -138 61 -173 76
-34 16 -64 29 -67 29 -2 0 -32 13 -67 29 -35 16 -205 91 -378 166 -173 75
-328 143 -345 151 -16 7 -126 56 -244 107 -147 65 -209 97 -200 103 8 5 59 28
114 52 166 71 306 133 373 163 34 16 64 29 67 29 2 0 30 12 62 26 32 15 72 32
88 39 29 12 115 51 180 80 17 8 154 68 305 133 151 66 300 131 330 145 47 21
112 49 252 110 l28 12 -1 262 c0 145 -4 263 -7 262 -4 0 -37 -15 -73 -32z"/>
<path d="M4611 4278 l-1 -263 93 -38 c50 -22 106 -45 122 -53 17 -8 388 -167
825 -354 437 -187 798 -344 802 -348 4 -4 -144 -72 -330 -151 -185 -80 -359
-155 -387 -167 -27 -12 -93 -40 -145 -63 -77 -32 -304 -129 -715 -306 -22 -9
-89 -38 -150 -64 l-110 -47 -2 -262 -2 -263 22 7 c12 4 38 15 57 24 19 10 109
52 200 93 179 81 255 116 399 183 51 24 95 44 96 44 3 0 39 16 233 106 42 20
181 83 307 141 127 58 259 119 295 135 36 17 88 41 115 53 28 13 82 37 120 55
39 18 149 68 245 112 96 44 203 93 238 110 l62 29 -2 230 -3 230 -230 105
c-126 58 -255 117 -285 131 -30 14 -73 33 -95 43 -22 10 -74 33 -115 53 -41
19 -259 119 -485 222 -225 103 -457 209 -513 236 -57 27 -105 49 -107 49 -2 0
-41 17 -87 39 -45 21 -135 62 -198 91 -63 29 -148 68 -188 86 -41 19 -75 34
-77 34 -1 0 -3 -118 -4 -262z"/>
</g>
</svg>
